<?xml version="1.0" encoding="UTF-8"?>
<svg width="196px" height="82px" viewBox="0 0 196 82" version="1.1" xmlns="http://www.w3.org/2000/svg" xmlns:xlink="http://www.w3.org/1999/xlink">
    <!-- Generator: Sketch 52.2 (67145) - http://www.bohemiancoding.com/sketch -->
    <title>Element / Logo / AC / colour-sq</title>
    <desc>Created with Sketch.</desc>
    <defs>
        <linearGradient x1="23.6867%" y1="56.58286%" x2="39.15508%" y2="56.58286%" id="linearGradient-1">
            <stop stop-color="#ED1C24" offset="0%"></stop>
            <stop stop-color="#F4795A" offset="51.36%"></stop>
            <stop stop-color="#FFFFFF" offset="100%"></stop>
        </linearGradient>
        <linearGradient x1="0.043629858%" y1="50.0099306%" x2="100.097542%" y2="50.0099306%" id="linearGradient-2">
            <stop stop-color="#ED1C24" offset="0%"></stop>
            <stop stop-color="#F4795A" offset="51.36%"></stop>
            <stop stop-color="#FFFFFF" offset="100%"></stop>
        </linearGradient>
        <linearGradient x1="23.57874%" y1="45.68986%" x2="73.89102%" y2="45.68986%" id="linearGradient-3">
            <stop stop-color="#FDDED0" offset="0%"></stop>
            <stop stop-color="#F4795A" offset="39.11%"></stop>
            <stop stop-color="#ED1C24" offset="100%"></stop>
        </linearGradient>
        <linearGradient x1="0.0013822109%" y1="49.9583301%" x2="99.9821549%" y2="49.9583301%" id="linearGradient-4">
            <stop stop-color="#FDDED0" offset="0%"></stop>
            <stop stop-color="#F4795A" offset="39.11%"></stop>
            <stop stop-color="#ED1C24" offset="100%"></stop>
        </linearGradient>
    </defs>
    <g id="styles" stroke="none" stroke-width="1" fill="none" fill-rule="evenodd">
        <g id="Courses-Library" transform="translate(-134.000000, -664.000000)">
            <g id="Element-/-Logo-/-AC-/-colour-sq" transform="translate(134.000000, 664.000000)">
                <g id="REC-logos-FINAL-12" stroke-width="1">
                    <g id="Group" fill-rule="nonzero">
                        <g transform="translate(32.245161, 25.610294)" fill="#197EC1" id="Shape">
                            <path d="M4.39419355,11.4772059 C6.03806452,11.0345588 7.61870968,10.75 9.29419355,10.75 C16.0909677,10.75 20.0425806,13.975 20.0425806,19.4132353 L20.0425806,32.5661765 C20.0425806,32.9139706 19.8212903,33.1352941 19.4735484,33.1352941 L16.1225806,33.1352941 C15.7748387,33.1352941 15.5851613,33.0088235 15.3954839,32.7242647 L14.9845161,31.9338235 C14.7316129,31.3963235 14.3206452,31.3014706 13.5619355,31.9338235 C12.3922581,32.9772059 10.6219355,33.6411765 8.75677419,33.6411765 C3.44580645,33.6411765 0.284516129,31.0169118 0.284516129,26.4955882 C0.284516129,22.3536765 3.57225806,19.8875 9.13612903,19.8875 L13.3406452,19.8875 L13.3406452,19.7926471 C13.1509677,17.8639706 11.5070968,16.7573529 8.97806452,16.7573529 C8.09290323,16.7573529 7.04967742,16.9470588 6.06967742,17.2 L4.36258065,17.6742647 C4.01483871,17.7691176 3.79354839,17.6426471 3.63548387,17.2632353 L2.24451613,12.6154412 C2.11806452,12.2044118 2.24451613,11.9830882 2.65548387,11.8882353 L4.39419355,11.4772059 Z M9.13612903,24.3139706 C7.84,24.3139706 6.8916129,25.0411765 6.8916129,26.0213235 C6.8916129,27.2860294 7.84,27.9816176 9.42064516,27.9816176 C11.7283871,27.9816176 13.0245161,26.875 13.3090323,24.4088235 L13.3090323,24.3139706 L9.13612903,24.3139706 Z"></path>
                            <path d="M42.5193548,20.0772059 C40.8754839,24.5036765 39.2632258,29.2779412 38.3148387,32.6610294 C38.22,32.9772059 37.9987097,33.1669118 37.6825806,33.1669118 L30.5380645,33.1669118 C30.2219355,33.1669118 30.0006452,32.9772059 29.9058065,32.6610294 C28.9574194,29.3095588 27.3767742,24.5669118 25.7012903,20.0772059 L22.6348387,11.9198529 C22.4451613,11.5088235 22.6348387,11.2558824 23.0774194,11.2558824 L29.1787097,11.2558824 C29.4948387,11.2558824 29.716129,11.3823529 29.8425806,11.6985294 L31.1703226,15.4610294 C32.34,18.7176471 33.2251613,22.1639706 33.6677419,24.8198529 C33.7625806,25.3889706 34.3948387,25.3889706 34.4896774,24.8198529 C34.8374194,22.1323529 35.7225806,18.6544118 36.9554839,15.4610294 L38.2832258,11.6985294 C38.4096774,11.3823529 38.6309677,11.2558824 38.9470968,11.2558824 L45.0483871,11.2558824 C45.4909677,11.2558824 45.6806452,11.5088235 45.4909677,11.9198529 L42.5193548,20.0772059 Z"></path>
                            <path d="M58.0412903,32.5661765 C58.0412903,32.9139706 57.82,33.1352941 57.4722581,33.1352941 L51.5922581,33.1352941 C51.2445161,33.1352941 51.0232258,32.9139706 51.0232258,32.5661765 L51.0232258,17.4213235 L48.7154839,17.4213235 C48.3677419,17.4213235 48.1464516,17.2 48.1464516,16.8522059 L48.1464516,11.7933824 C48.1464516,11.4455882 48.3677419,11.2242647 48.7154839,11.2242647 L57.503871,11.2242647 C57.8516129,11.2242647 58.0729032,11.4455882 58.0729032,11.7933824 L58.0729032,32.5661765 L58.0412903,32.5661765 Z"></path>
                            <path d="M65.976129,11.4772059 C67.62,11.0345588 69.2006452,10.75 70.876129,10.75 C77.6729032,10.75 81.6245161,13.975 81.6245161,19.4132353 L81.6245161,32.5661765 C81.6245161,32.9139706 81.4032258,33.1352941 81.0554839,33.1352941 L77.7045161,33.1352941 C77.3567742,33.1352941 77.1670968,33.0088235 76.9774194,32.7242647 L76.5664516,31.9338235 C76.3135484,31.3963235 75.9025806,31.3014706 75.143871,31.9338235 C73.9741935,32.9772059 72.203871,33.6411765 70.3387097,33.6411765 C65.0277419,33.6411765 61.8664516,31.0169118 61.8664516,26.4955882 C61.8664516,22.3536765 65.1858065,19.8875 70.7180645,19.8875 L74.9225806,19.8875 L74.9225806,19.7926471 C74.7329032,17.8639706 73.0890323,16.7573529 70.56,16.7573529 C69.6748387,16.7573529 68.6316129,16.9470588 67.6516129,17.2 L65.9445161,17.6742647 C65.5967742,17.7691176 65.3754839,17.6426471 65.2174194,17.2632353 L63.8264516,12.6154412 C63.7,12.2044118 63.8264516,11.9830882 64.2374194,11.8882353 L65.976129,11.4772059 Z M70.7180645,24.3139706 C69.4219355,24.3139706 68.4735484,25.0411765 68.4735484,26.0213235 C68.4735484,27.2860294 69.4219355,27.9816176 71.0025806,27.9816176 C73.3103226,27.9816176 74.6064516,26.875 74.8909677,24.4088235 L74.8909677,24.3139706 L70.7180645,24.3139706 Z"></path>
                            <path d="M100.276129,11.2242647 C100.623871,11.2242647 100.845161,11.4455882 100.845161,11.7933824 L100.845161,16.8522059 C100.845161,17.2 100.623871,17.4213235 100.276129,17.4213235 L95.2180645,17.4213235 L95.2180645,25.5470588 C95.2180645,26.7169118 95.6606452,27.3808824 96.3877419,27.3808824 C96.7987097,27.3808824 97.1464516,27.3492647 97.4941935,27.1911765 C97.8419355,27.0647059 98.1264516,27.0963235 98.2845161,27.4441176 L100.370968,31.7441176 C100.497419,32.0602941 100.465806,32.3764706 100.18129,32.5345588 C99.1064516,33.2617647 97.683871,33.6095588 96.356129,33.6095588 C91.1716129,33.6095588 88.1367742,30.6058824 88.1367742,25.5470588 L88.1367742,17.4213235 L85.8290323,17.4213235 C85.4812903,17.4213235 85.26,17.2 85.26,16.8522059 L85.26,11.7933824 C85.26,11.4455882 85.4812903,11.2242647 85.8290323,11.2242647 L88.1367742,11.2242647 L88.1367742,6.35514706 C88.1367742,6.03897059 88.2632258,5.81764706 88.6109677,5.69117647 L94.4909677,3.73088235 C94.9019355,3.60441176 95.1548387,3.7625 95.1548387,4.23676471 L95.1548387,11.2558824 L100.276129,11.2558824 L100.276129,11.2242647 Z"></path>
                            <path d="M113.711613,32.5661765 C113.711613,32.9139706 113.490323,33.1352941 113.142581,33.1352941 L107.262581,33.1352941 C106.914839,33.1352941 106.693548,32.9139706 106.693548,32.5661765 L106.693548,17.4213235 L104.322581,17.4213235 C103.974839,17.4213235 103.753548,17.2 103.753548,16.8522059 L103.753548,11.7933824 C103.753548,11.4455882 103.974839,11.2242647 104.322581,11.2242647 L113.110968,11.2242647 C113.45871,11.2242647 113.68,11.4455882 113.68,11.7933824 L113.68,32.5661765 L113.711613,32.5661765 Z M113.585161,4.26838235 C113.585161,6.79779412 112.162581,8.37867647 109.601935,8.37867647 C107.104516,8.37867647 105.61871,6.82941176 105.61871,4.26838235 C105.61871,1.67573529 107.104516,0.221323529 109.601935,0.221323529 C112.130968,0.221323529 113.585161,1.67573529 113.585161,4.26838235 Z"></path>
                            <path d="M139.507742,22.1639706 C139.507742,29.2147059 135.366452,33.6411765 128.664516,33.6411765 C121.930968,33.6411765 117.789677,29.2147059 117.789677,22.1639706 C117.789677,15.2080882 121.930968,10.75 128.664516,10.75 C135.366452,10.75 139.507742,15.2080882 139.507742,22.1639706 Z M124.68129,22.1639706 C124.68129,25.4205882 126.19871,27.3808824 128.664516,27.3808824 C131.067097,27.3808824 132.584516,25.4205882 132.584516,22.1639706 C132.584516,18.9389706 131.067097,17.0419118 128.664516,17.0419118 C126.19871,17.0419118 124.68129,18.9705882 124.68129,22.1639706 Z"></path>
                            <path d="M148.580645,12.5838235 C149.023226,13.2477941 149.307742,13.2161765 149.971613,12.6154412 C151.741935,11.0977941 153.796774,10.75 155.156129,10.75 C160.435484,10.75 163.628387,13.7852941 163.628387,19.0022059 L163.628387,32.5661765 C163.628387,32.9139706 163.407097,33.1352941 163.059355,33.1352941 L157.116129,33.1352941 C156.768387,33.1352941 156.547097,32.9139706 156.547097,32.5661765 L156.547097,19.8875 C156.547097,18.0536765 155.59871,17.0419118 154.049677,17.0419118 C151.9,17.0419118 150.69871,18.5911765 150.69871,21.5948529 L150.69871,32.5661765 C150.69871,32.9139706 150.477419,33.1352941 150.129677,33.1352941 L144.154839,33.1352941 C143.807097,33.1352941 143.585806,32.9139706 143.585806,32.5661765 L143.585806,11.825 C143.585806,11.4772059 143.807097,11.2558824 144.154839,11.2558824 L147.316129,11.2558824 C147.632258,11.2558824 147.853548,11.3823529 147.98,11.6669118 L148.580645,12.5838235 Z"></path>
                        </g>
                        <g>
                            <g id="SVGID_9_-link" transform="translate(0.316129, 14.860294)" fill="url(#linearGradient-2)">
                                <path d="M24.5,45.8139706 L24.5632258,45.8139706 C11.7283871,45.8139706 0.158064516,35.6330882 0.158064516,25.8632353 L0.126309058,0.284558824 C0.0948387095,7.46176471 10.5587097,19.6345588 24.5632258,19.6345588 L24.5632258,36.0441176 L24.5,45.8139706" id="SVGID_9_"></path>
                            </g>
                            <g id="SVGID_14_-link" fill="url(#linearGradient-4)">
                                <path d="M79.8225806,24.3139706 C72.0774194,16.8522059 60.2541935,7.11397059 44.0051613,2.43455882 C26.0806452,-2.71911765 1.54903226,0.980147059 0.284516129,15.1764706 C0.252903226,24.5669118 0.474193548,41.1977941 0.474193548,41.1977941 C0.505806452,29.3727941 17.4503226,19.7926471 42.2348387,18.5279412 C54.9432258,17.8955882 71.6664516,20.6779412 79.8225806,24.3139706" id="SVGID_14_"></path>
                            </g>
                            <polygon id="Shape" fill="#83C1E9" points="77.1670968 29.6257353 77.1354839 29.6889706 94.4593548 31.7125 82.6045161 19.0338235 83.1419355 25.9264706"></polygon>
                        </g>
                    </g>
                </g>
                <path d="M40.954,80.67 L40.25,80.868 C39.546,81.088 38.82,81.22 38.072,81.22 C34.86,81.22 33.1,79.108 33.1,75.72 C33.1,72.354 34.838,70.242 38.094,70.242 C38.776,70.242 39.414,70.352 40.14,70.572 L40.822,70.77 C40.954,70.792 40.998,70.88 40.954,71.012 L40.668,71.892 C40.624,72.002 40.536,72.046 40.426,72.024 L39.81,71.848 C39.172,71.628 38.6,71.562 38.116,71.562 C35.696,71.562 34.53,73.146 34.53,75.72 C34.53,78.338 35.74,79.9 38.072,79.9 C38.622,79.9 39.282,79.79 39.942,79.592 L40.558,79.416 C40.69,79.372 40.778,79.416 40.822,79.548 L41.086,80.406 C41.13,80.538 41.086,80.626 40.954,80.67 Z M47.728,70.242 C50.698,70.242 52.524,72.354 52.524,75.72 C52.524,79.108 50.698,81.22 47.728,81.22 C44.758,81.22 42.932,79.108 42.932,75.72 C42.932,72.354 44.758,70.242 47.728,70.242 Z M47.728,71.562 C45.616,71.562 44.362,73.124 44.362,75.72 C44.362,78.338 45.616,79.9 47.728,79.9 C49.84,79.9 51.116,78.338 51.116,75.72 C51.116,73.124 49.84,71.562 47.728,71.562 Z M62.884,80.802 L62.796,79.46 C62.73,79.262 62.598,79.262 62.466,79.438 C61.63,80.626 60.464,81.22 58.946,81.22 C56.526,81.22 55.052,79.592 55.052,76.952 L55.052,70.66 C55.052,70.528 55.118,70.462 55.25,70.462 L56.284,70.462 C56.416,70.462 56.482,70.528 56.482,70.66 L56.482,76.842 C56.482,78.756 57.45,79.9 59.078,79.9 C61.256,79.9 62.532,78.272 62.532,75.478 L62.532,70.66 C62.532,70.528 62.598,70.462 62.73,70.462 L63.764,70.462 C63.896,70.462 63.962,70.528 63.962,70.66 L63.962,80.802 C63.962,80.934 63.896,81 63.764,81 L63.082,81 C62.95,81 62.884,80.934 62.884,80.802 Z M72.518,70.44 L72.518,71.364 C72.518,71.496 72.452,71.562 72.32,71.562 C69.966,71.672 68.624,73.652 68.624,77.37 L68.624,80.802 C68.624,80.934 68.558,81 68.426,81 L67.392,81 C67.26,81 67.194,80.934 67.194,80.802 L67.194,70.66 C67.194,70.528 67.26,70.462 67.392,70.462 L68.074,70.462 C68.206,70.462 68.272,70.528 68.294,70.66 L68.448,72.31 C68.492,72.486 68.624,72.53 68.734,72.354 C69.57,71.034 70.648,70.308 72.32,70.242 C72.452,70.242 72.518,70.308 72.518,70.44 Z M79.578,76.556 L77.004,75.83 C75.376,75.412 74.628,74.554 74.628,73.102 C74.628,71.32 76.014,70.242 78.39,70.242 C79.358,70.242 80.304,70.374 80.964,70.572 L81.822,70.836 C81.954,70.88 81.998,70.968 81.954,71.1 L81.712,71.958 C81.668,72.09 81.58,72.134 81.448,72.09 L80.612,71.848 C80.018,71.672 79.182,71.562 78.412,71.562 C76.916,71.562 76.058,72.178 76.058,73.102 C76.058,73.872 76.476,74.356 77.466,74.642 L80.018,75.368 C81.734,75.808 82.482,76.732 82.482,78.162 C82.482,80.076 81.008,81.22 78.478,81.22 C77.18,81.22 76.058,81.044 75.156,80.714 L74.562,80.516 C74.43,80.472 74.386,80.384 74.43,80.252 L74.738,79.372 C74.782,79.262 74.87,79.218 74.98,79.262 L75.552,79.46 C76.3,79.724 77.312,79.9 78.478,79.9 C80.106,79.9 81.052,79.24 81.052,78.162 C81.052,77.348 80.59,76.864 79.578,76.556 Z M92.38,80.692 L91.676,80.89 C90.906,81.132 90.136,81.22 89.3,81.22 C86.264,81.22 84.46,79.108 84.46,75.72 C84.46,72.354 86.286,70.242 89.278,70.242 C91.764,70.242 93.26,71.452 93.26,73.498 C93.26,75.038 92.292,75.94 90.312,76.27 L86.022,76.974 C86.308,78.822 87.496,79.9 89.3,79.9 C90.048,79.9 90.73,79.812 91.346,79.614 L92.006,79.416 C92.138,79.394 92.226,79.438 92.27,79.57 L92.534,80.45 C92.556,80.582 92.512,80.67 92.38,80.692 Z M85.912,75.764 L90.07,75.06 C91.236,74.862 91.83,74.356 91.83,73.52 C91.83,72.288 90.884,71.562 89.256,71.562 C87.21,71.562 85.978,72.948 85.912,75.764 Z M100.496,76.556 L97.922,75.83 C96.294,75.412 95.546,74.554 95.546,73.102 C95.546,71.32 96.932,70.242 99.308,70.242 C100.276,70.242 101.222,70.374 101.882,70.572 L102.74,70.836 C102.872,70.88 102.916,70.968 102.872,71.1 L102.63,71.958 C102.586,72.09 102.498,72.134 102.366,72.09 L101.53,71.848 C100.936,71.672 100.1,71.562 99.33,71.562 C97.834,71.562 96.976,72.178 96.976,73.102 C96.976,73.872 97.394,74.356 98.384,74.642 L100.936,75.368 C102.652,75.808 103.4,76.732 103.4,78.162 C103.4,80.076 101.926,81.22 99.396,81.22 C98.098,81.22 96.976,81.044 96.074,80.714 L95.48,80.516 C95.348,80.472 95.304,80.384 95.348,80.252 L95.656,79.372 C95.7,79.262 95.788,79.218 95.898,79.262 L96.47,79.46 C97.218,79.724 98.23,79.9 99.396,79.9 C101.024,79.9 101.97,79.24 101.97,78.162 C101.97,77.348 101.508,76.864 100.496,76.556 Z" id="courses" fill="#197EC1"></path>
            </g>
        </g>
    </g>
</svg>